<svg xmlns="http://www.w3.org/2000/svg" width="85.5" height="33.5" viewBox="0 0 85.5 33.5">
  <g id="Group_73" data-name="Group 73" transform="translate(-208.5 -136.5)">
    <g id="Rectangle_18" data-name="Rectangle 18" transform="translate(220 145)" fill="#1b71d5" stroke="#1b71d5" stroke-width="1">
      <rect width="35" height="15" rx="3" stroke="none"/>
      <rect x="0.5" y="0.5" width="34" height="14" rx="2.5" fill="none"/>
    </g>
    <g id="Polygon_1" data-name="Polygon 1" transform="matrix(-1, 0.017, -0.017, -1, 249.086, 165.877)" fill="#1b71d5">
      <path d="M 8.108475685119629 6.863638401031494 L 0.8915241956710815 6.863638401031494 L 4.5 0.9588567614555359 L 8.108475685119629 6.863638401031494 Z" stroke="none"/>
      <path d="M 4.5 1.917725086212158 L 1.783054351806641 6.363638401031494 L 7.216945648193359 6.363638401031494 L 4.5 1.917725086212158 M 4.5 -1.9073486328125e-06 L 9 7.363638401031494 L 0 7.363638401031494 L 4.5 -1.9073486328125e-06 Z" stroke="none" fill="#1b71d5"/>
    </g>
    <g id="Ellipse_3" data-name="Ellipse 3" transform="translate(265 143)" fill="#fff" stroke="#1b71d5" stroke-width="2">
      <circle cx="10" cy="10" r="10" stroke="none"/>
      <circle cx="10" cy="10" r="9" fill="none"/>
    </g>
    <line id="Line_10" data-name="Line 10" y2="8" transform="translate(275.5 146.5)" fill="none" stroke="#1b71d5" stroke-width="1"/>
    <line id="Line_11" data-name="Line 11" x1="5" y1="2.857" transform="translate(275.5 154.5)" fill="none" stroke="#1b71d5" stroke-width="1"/>
    <g id="Ellipse_4" data-name="Ellipse 4" transform="translate(280 160)" fill="#fff" stroke="#707070" stroke-width="1">
      <circle cx="0.5" cy="0.5" r="0.5" stroke="none"/>
      <circle cx="0.5" cy="0.5" fill="none"/>
    </g>
    <g id="Ellipse_5" data-name="Ellipse 5" transform="translate(274 153)" fill="#fff" stroke="#1b71d5" stroke-width="1">
      <circle cx="1.5" cy="1.5" r="1.5" stroke="none"/>
      <circle cx="1.5" cy="1.5" r="1" fill="none"/>
    </g>
    <g id="Path_14" data-name="Path 14" transform="translate(208.5 136.5)" fill="none">
      <path d="M9.148,0h67.2C81.4,0,85.5,5.2,85.5,11.613V21.887C85.5,28.3,81.4,33.5,76.352,33.5H9.148C4.1,33.5,0,28.3,0,21.887V11.613C0,5.2,4.1,0,9.148,0Z" stroke="none"/>
      <path d="M 9.148147583007813 2 C 7.330451965332031 2 5.591102600097656 2.937236785888672 4.250526428222656 4.639062881469727 C 2.799247741699219 6.481412887573242 2 8.958263397216797 2 11.61332511901855 L 2 21.88666152954102 C 2 24.54172515869141 2.799247741699219 27.01857566833496 4.250526428222656 28.86093711853027 C 5.591102600097656 30.56276321411133 7.330451965332031 31.5 9.148147583007813 31.5 L 76.35186004638672 31.5 C 78.16956329345703 31.5 79.90889739990234 30.56276321411133 81.24947357177734 28.86093711853027 C 82.70075225830078 27.01857566833496 83.5 24.54172515869141 83.5 21.88666152954102 L 83.5 11.61332511901855 C 83.5 8.958263397216797 82.70075225830078 6.481412887573242 81.24947357177734 4.639062881469727 C 79.90889739990234 2.937236785888672 78.16956329345703 2 76.35186004638672 2 L 9.148147583007813 2 M 9.148147583007813 0 L 76.35186004638672 0 C 81.40423583984375 0 85.5 5.199462890625 85.5 11.61332511901855 L 85.5 21.88666152954102 C 85.5 28.3005256652832 81.40423583984375 33.5 76.35186004638672 33.5 L 9.148147583007813 33.5 C 4.09576416015625 33.5 0 28.3005256652832 0 21.88666152954102 L 0 11.61332511901855 C 0 5.199462890625 4.09576416015625 0 9.148147583007813 0 Z" stroke="none" fill="#1b71d5"/>
    </g>
  </g>
</svg>
