<svg xmlns="http://www.w3.org/2000/svg" xmlns:xlink="http://www.w3.org/1999/xlink" width="88" height="40" viewBox="0 0 88 40"><defs><radialGradient id="a" cx="0.5" cy="0.5" r="0.5" gradientUnits="objectBoundingBox"><stop offset="0" stop-color="#aae2fa"/><stop offset="1" stop-color="#12a7ea"/></radialGradient><linearGradient id="b" x2="1" y2="1" gradientUnits="objectBoundingBox"><stop offset="0" stop-color="#12a7ea"/><stop offset="1" stop-color="#aae2fa"/></linearGradient></defs><g transform="translate(-225 -145)"><g transform="translate(273 145)" stroke="#12a7ea" stroke-width="1" fill="url(#a)"><circle cx="20" cy="20" r="20" stroke="none"/><circle cx="20" cy="20" r="19.5" fill="none"/></g><line y1="17" transform="translate(293 148.5)" fill="none" stroke="#d49326" stroke-width="1"/><line x2="6" y2="6" transform="translate(293 164.5)" fill="none" stroke="#d49326" stroke-width="1"/><g transform="translate(291.5 163)" fill="none" stroke="#1f72d1" stroke-width="1"><circle cx="1.5" cy="1.5" r="1.5" stroke="none"/><circle cx="1.5" cy="1.5" r="1" fill="none"/></g><line x2="1" transform="translate(292.5 147)" fill="none" stroke="#1f72d1" stroke-width="1"/><line x2="1" transform="translate(274.5 165)" fill="none" stroke="#1f72d1" stroke-width="1"/><line x2="1" transform="translate(310.5 165)" fill="none" stroke="#1f72d1" stroke-width="1"/><line x2="1" transform="translate(292.5 183)" fill="none" stroke="#1f72d1" stroke-width="1"/><line x2="1" transform="translate(277.5 157)" fill="none" stroke="#1f72d1" stroke-width="1"/><line x2="1" transform="translate(283 151)" fill="none" stroke="#1f72d1" stroke-width="1"/><line x1="1" transform="translate(307.5 157)" fill="none" stroke="#1f72d1" stroke-width="1"/><line x1="1" transform="translate(302.5 151)" fill="none" stroke="#1f72d1" stroke-width="1"/><line x2="1" transform="translate(277.5 173)" fill="none" stroke="#1f72d1" stroke-width="1"/><line x2="1" transform="translate(283 179)" fill="none" stroke="#1f72d1" stroke-width="1"/><line x1="1" transform="translate(307.5 173)" fill="none" stroke="#1f72d1" stroke-width="1"/><line x1="1" transform="translate(302.5 179)" fill="none" stroke="#1f72d1" stroke-width="1"/><g transform="translate(-5.151 -0.322)"><path d="M22.39,40.323h0L5.151,23.083,27.912.322l.271.271,13.7,3,3,13.7.271.271-.174.173L22.391,40.322Zm15.26-34a1.5,1.5,0,1,0,1.5,1.5A1.5,1.5,0,0,0,37.651,6.323Z" transform="translate(225 145)" fill="url(#b)"/><path d="M0,0S5.11,1.636,5.475,5.475s5.475,5.475,5.475,5.475" transform="translate(248.055 156.468)" fill="none" stroke="#d49326" stroke-width="1"/><path d="M0,0S5.11,1.636,5.475,5.475s5.475,5.475,5.475,5.475" transform="translate(244.769 159.753)" fill="none" stroke="#d49326" stroke-width="1"/><path d="M0,0S5.11,1.636,5.475,5.475s5.475,5.475,5.475,5.475" transform="translate(241.484 163.038)" fill="none" stroke="#d49326" stroke-width="1"/></g></g></svg>