<svg xmlns="http://www.w3.org/2000/svg" width="58" height="23.034" viewBox="0 0 58 23.034"><g transform="translate(-227 -143)"><g transform="translate(227 145)" fill="#1b71d5" stroke="#1b71d5" stroke-width="1"><rect width="30" height="15" rx="3" stroke="none"/><rect x="0.5" y="0.5" width="29" height="14" rx="2.5" fill="none"/></g><g transform="matrix(-1, 0.017, -0.017, -1, 253.086, 165.877)" fill="#1b71d5"><path d="M 8.108475685119629 6.863638401031494 L 0.8915241956710815 6.863638401031494 L 4.5 0.9588567614555359 L 8.108475685119629 6.863638401031494 Z" stroke="none"/><path d="M 4.5 1.917725086212158 L 1.783054351806641 6.363638401031494 L 7.216945648193359 6.363638401031494 L 4.5 1.917725086212158 M 4.5 -1.9073486328125e-06 L 9 7.363638401031494 L 0 7.363638401031494 L 4.5 -1.9073486328125e-06 Z" stroke="none" fill="#1b71d5"/></g><g transform="translate(265 143)" fill="#fff" stroke="#1b71d5" stroke-width="2"><circle cx="10" cy="10" r="10" stroke="none"/><circle cx="10" cy="10" r="9" fill="none"/></g><line y2="8" transform="translate(275.5 146.5)" fill="none" stroke="#1b71d5" stroke-width="1"/><line x1="5" y1="2.857" transform="translate(275.5 154.5)" fill="none" stroke="#1b71d5" stroke-width="1"/><g transform="translate(280 160)" fill="#fff" stroke="#707070" stroke-width="1"><circle cx="0.5" cy="0.5" r="0.5" stroke="none"/><circle cx="0.5" cy="0.5" fill="none"/></g><g transform="translate(274 153)" fill="#fff" stroke="#1b71d5" stroke-width="1"><circle cx="1.5" cy="1.5" r="1.5" stroke="none"/><circle cx="1.5" cy="1.5" r="1" fill="none"/></g></g></svg>