<svg xmlns="http://www.w3.org/2000/svg" xmlns:xlink="http://www.w3.org/1999/xlink" width="60" height="60" viewBox="0 0 60 60"><defs><radialGradient id="a" cx="0.5" cy="0.5" r="0.685" gradientTransform="translate(0 -2.551) scale(1 6.102)" gradientUnits="objectBoundingBox"><stop offset="0" stop-color="#7e5009"/><stop offset="1" stop-color="#ea9713"/></radialGradient><radialGradient id="b" cx="0.5" cy="0.5" r="4.64" gradientTransform="matrix(0.002, 1, -0.111, 0, 0.554, 0)" gradientUnits="objectBoundingBox"><stop offset="0" stop-color="#1b71d5"/><stop offset="1" stop-color="#ea9713"/></radialGradient></defs><g transform="translate(-641 -395)"><g transform="translate(641 395)" fill="#095475" stroke="#fff" stroke-width="3"><circle cx="30" cy="30" r="30" stroke="none"/><circle cx="30" cy="30" r="28.5" fill="none"/></g><g transform="translate(647.028 418.672) rotate(-19)"><g transform="translate(17.052 11.728)"><path d="M6.6,10.605H-.931L-1.423.5H7.1Z" transform="translate(1.559 -0.37)" fill="url(#a)"/><path d="M-1.676.259l.479,9.846h7.28L6.576.259H-1.676M-1.948,0h8.8L6.33,10.364H-1.443Z" transform="translate(1.948)" fill="#df951d"/></g><line y2="7.773" transform="translate(19.5 13.412)" fill="none" stroke="#d49326" stroke-width="1"/><line y2="7.773" transform="translate(20.796 13.412)" fill="none" stroke="#d49326" stroke-width="1"/><line y2="7.773" transform="translate(22.091 13.412)" fill="none" stroke="#d49326" stroke-width="1"/><line y2="7.773" transform="translate(23.387 13.412)" fill="none" stroke="#d49326" stroke-width="1"/><line y1="1.296" x2="8.81" transform="translate(17.168 9.785)" fill="none" stroke="#e39519" stroke-width="1"/><g transform="translate(19.832 9.618) rotate(-8)" stroke="#e59618" stroke-width="1" fill="url(#b)"><rect width="3.109" height="1.036" stroke="none"/><rect x="0.5" y="0.5" width="2.109" height="0.036" fill="none"/></g></g><g transform="matrix(0.848, 0.53, -0.53, 0.848, 663.504, 383.79)"><g transform="translate(17.052 11.728)"><path d="M6.6,10.605H-.931L-1.423.5H7.1Z" transform="translate(1.559 -0.37)" fill="url(#a)"/><path d="M-1.676.259l.479,9.846h7.28L6.576.259H-1.676M-1.948,0h8.8L6.33,10.364H-1.443Z" transform="translate(1.948)" fill="#df951d"/></g><line y2="7.773" transform="translate(19.5 13.412)" fill="none" stroke="#d49326" stroke-width="1"/><line y2="7.773" transform="translate(20.796 13.412)" fill="none" stroke="#d49326" stroke-width="1"/><line y2="7.773" transform="translate(22.091 13.412)" fill="none" stroke="#d49326" stroke-width="1"/><line y2="7.773" transform="translate(23.387 13.412)" fill="none" stroke="#d49326" stroke-width="1"/><line y1="1.296" x2="8.81" transform="translate(17.168 9.785)" fill="none" stroke="#e39519" stroke-width="1"/><g transform="translate(19.832 9.618) rotate(-8)" stroke="#e59618" stroke-width="1" fill="url(#b)"><rect width="3.109" height="1.036" stroke="none"/><rect x="0.5" y="0.5" width="2.109" height="0.036" fill="none"/></g></g><g transform="matrix(0.999, -0.035, 0.035, 0.999, 633.415, 401.575)"><g transform="translate(17.052 11.728)"><path d="M6.6,10.605H-.931L-1.423.5H7.1Z" transform="translate(1.559 -0.37)" fill="url(#a)"/><path d="M-1.676.259l.479,9.846h7.28L6.576.259H-1.676M-1.948,0h8.8L6.33,10.364H-1.443Z" transform="translate(1.948)" fill="#df951d"/></g><line y2="7.773" transform="translate(19.5 13.412)" fill="none" stroke="#d49326" stroke-width="1"/><line y2="7.773" transform="translate(20.796 13.412)" fill="none" stroke="#d49326" stroke-width="1"/><line y2="7.773" transform="translate(22.091 13.412)" fill="none" stroke="#d49326" stroke-width="1"/><line y2="7.773" transform="translate(23.387 13.412)" fill="none" stroke="#d49326" stroke-width="1"/><line y1="1.296" x2="8.81" transform="translate(17.168 9.785)" fill="none" stroke="#e39519" stroke-width="1"/><g transform="translate(19.832 9.618) rotate(-8)" stroke="#e59618" stroke-width="1" fill="url(#b)"><rect width="3.109" height="1.036" stroke="none"/><rect x="0.5" y="0.5" width="2.109" height="0.036" fill="none"/></g></g><g transform="matrix(0.848, 0.53, -0.53, 0.848, 647.504, 409.79)"><g transform="translate(17.052 11.728)"><path d="M6.6,10.605H-.931L-1.423.5H7.1Z" transform="translate(1.559 -0.37)" fill="url(#a)"/><path d="M-1.676.259l.479,9.846h7.28L6.576.259H-1.676M-1.948,0h8.8L6.33,10.364H-1.443Z" transform="translate(1.948)" fill="#df951d"/></g><line y2="7.773" transform="translate(19.5 13.412)" fill="none" stroke="#d49326" stroke-width="1"/><line y2="7.773" transform="translate(20.796 13.412)" fill="none" stroke="#d49326" stroke-width="1"/><line y2="7.773" transform="translate(22.091 13.412)" fill="none" stroke="#d49326" stroke-width="1"/><line y2="7.773" transform="translate(23.387 13.412)" fill="none" stroke="#d49326" stroke-width="1"/><line y1="1.296" x2="8.81" transform="translate(17.168 9.785)" fill="none" stroke="#e39519" stroke-width="1"/><g transform="translate(19.832 9.618) rotate(-8)" stroke="#e59618" stroke-width="1" fill="url(#b)"><rect width="3.109" height="1.036" stroke="none"/><rect x="0.5" y="0.5" width="2.109" height="0.036" fill="none"/></g></g><g transform="matrix(-0.839, 0.545, -0.545, -0.839, 714.024, 421.851)"><g transform="translate(17.052 11.728)"><path d="M6.6,10.605H-.931L-1.423.5H7.1Z" transform="translate(1.559 -0.37)" fill="url(#a)"/><path d="M-1.676.259l.479,9.846h7.28L6.576.259H-1.676M-1.948,0h8.8L6.33,10.364H-1.443Z" transform="translate(1.948)" fill="#df951d"/></g><line y2="7.773" transform="translate(19.5 13.412)" fill="none" stroke="#d49326" stroke-width="1"/><line y2="7.773" transform="translate(20.796 13.412)" fill="none" stroke="#d49326" stroke-width="1"/><line y2="7.773" transform="translate(22.091 13.412)" fill="none" stroke="#d49326" stroke-width="1"/><line y2="7.773" transform="translate(23.387 13.412)" fill="none" stroke="#d49326" stroke-width="1"/><line y1="1.296" x2="8.81" transform="translate(17.168 9.785)" fill="none" stroke="#e39519" stroke-width="1"/><g transform="translate(19.832 9.618) rotate(-8)" stroke="#e59618" stroke-width="1" fill="url(#b)"><rect width="3.109" height="1.036" stroke="none"/><rect x="0.5" y="0.5" width="2.109" height="0.036" fill="none"/></g></g><g transform="translate(684.903 415.647) rotate(68)"><g transform="translate(17.052 11.728)"><path d="M6.6,10.605H-.931L-1.423.5H7.1Z" transform="translate(1.559 -0.37)" fill="url(#a)"/><path d="M-1.676.259l.479,9.846h7.28L6.576.259H-1.676M-1.948,0h8.8L6.33,10.364H-1.443Z" transform="translate(1.948)" fill="#df951d"/></g><line y2="7.773" transform="translate(19.5 13.412)" fill="none" stroke="#d49326" stroke-width="1"/><line y2="7.773" transform="translate(20.796 13.412)" fill="none" stroke="#d49326" stroke-width="1"/><line y2="7.773" transform="translate(22.091 13.412)" fill="none" stroke="#d49326" stroke-width="1"/><line y2="7.773" transform="translate(23.387 13.412)" fill="none" stroke="#d49326" stroke-width="1"/><line y1="1.296" x2="8.81" transform="translate(17.168 9.785)" fill="none" stroke="#e39519" stroke-width="1"/><g transform="translate(19.832 9.618) rotate(-8)" stroke="#e59618" stroke-width="1" fill="url(#b)"><rect width="3.109" height="1.036" stroke="none"/><rect x="0.5" y="0.5" width="2.109" height="0.036" fill="none"/></g></g></g></svg>