<svg xmlns="http://www.w3.org/2000/svg" xmlns:xlink="http://www.w3.org/1999/xlink" viewBox="0 0 307 70"><defs><clipPath id="a"><rect width="56" height="70" fill="none"/></clipPath><clipPath id="b"><rect width="56" height="35" fill="none"/></clipPath><clipPath id="g"><rect width="88" height="70" fill="none"/></clipPath><clipPath id="h"><rect width="88" height="35" fill="none"/></clipPath></defs><g transform="translate(-38 -147)"><g transform="translate(0 1)"><g transform="translate(289 146)" clip-path="url(#a)"><g transform="translate(-38 -226)"><g transform="translate(38 226)" fill="#1b71d5" stroke="#fff" stroke-width="1"><rect width="8" height="70" stroke="none"/><rect x="0.5" y="0.5" width="7" height="69" fill="none"/></g></g><g transform="translate(-30 -226)"><g transform="translate(38 226)" fill="#1b71d5" stroke="#fff" stroke-width="1"><rect width="8" height="70" stroke="none"/><rect x="0.5" y="0.5" width="7" height="69" fill="none"/></g></g><g transform="translate(-22 -226)"><g transform="translate(38 226)" fill="#1b71d5" stroke="#fff" stroke-width="1"><rect width="8" height="70" stroke="none"/><rect x="0.5" y="0.5" width="7" height="69" fill="none"/></g></g><g transform="translate(-14 -226)"><g transform="translate(38 226)" fill="#1b71d5" stroke="#fff" stroke-width="1"><rect width="8" height="70" stroke="none"/><rect x="0.5" y="0.5" width="7" height="69" fill="none"/></g></g><g transform="translate(-6 -226)"><g transform="translate(38 226)" fill="#1b71d5" stroke="#fff" stroke-width="1"><rect width="8" height="70" stroke="none"/><rect x="0.5" y="0.5" width="7" height="69" fill="none"/></g></g><g transform="translate(2 -226)"><g transform="translate(38 226)" fill="#1b71d5" stroke="#fff" stroke-width="1"><rect width="8" height="70" stroke="none"/><rect x="0.5" y="0.5" width="7" height="69" fill="none"/></g></g><g transform="translate(10 -226)"><g transform="translate(38 226)" fill="#1b71d5" stroke="#fff" stroke-width="1"><rect width="8" height="70" stroke="none"/><rect x="0.5" y="0.5" width="7" height="69" fill="none"/></g></g></g><g transform="translate(289 146)" clip-path="url(#b)"><g transform="translate(-38 -226)"><g transform="translate(38 226)" fill="#aec1d5" stroke="#fff" stroke-width="1"><rect width="8" height="70" stroke="none"/><rect x="0.5" y="0.5" width="7" height="69" fill="none"/></g></g><g transform="translate(-30 -226)"><g transform="translate(38 226)" fill="#aec1d5" stroke="#fff" stroke-width="1"><rect width="8" height="70" stroke="none"/><rect x="0.5" y="0.5" width="7" height="69" fill="none"/></g></g><g transform="translate(-22 -226)"><g transform="translate(38 226)" fill="#aec1d5" stroke="#fff" stroke-width="1"><rect width="8" height="70" stroke="none"/><rect x="0.5" y="0.5" width="7" height="69" fill="none"/></g></g><g transform="translate(-14 -226)"><g transform="translate(38 226)" fill="#aec1d5" stroke="#fff" stroke-width="1"><rect width="8" height="70" stroke="none"/><rect x="0.5" y="0.5" width="7" height="69" fill="none"/></g></g><g transform="translate(-6 -226)"><g transform="translate(38 226)" fill="#aec1d5" stroke="#fff" stroke-width="1"><rect width="8" height="70" stroke="none"/><rect x="0.5" y="0.5" width="7" height="69" fill="none"/></g></g><g transform="translate(2 -226)"><g transform="translate(38 226)" fill="#aec1d5" stroke="#fff" stroke-width="1"><rect width="8" height="70" stroke="none"/><rect x="0.5" y="0.5" width="7" height="69" fill="none"/></g></g><g transform="translate(10 -226)"><g transform="translate(38 226)" fill="#aec1d5" stroke="#fff" stroke-width="1"><rect width="8" height="70" stroke="none"/><rect x="0.5" y="0.5" width="7" height="69" fill="none"/></g></g></g><g transform="translate(321 166)" fill="#24aae8" stroke="#fff" stroke-width="1"><rect width="8" height="30" stroke="none"/><rect x="0.5" y="0.5" width="7" height="29" fill="none"/></g><g transform="translate(329 156)" fill="#24aae8" stroke="#fff" stroke-width="1"><rect width="8" height="50" stroke="none"/><rect x="0.5" y="0.5" width="7" height="49" fill="none"/></g><g transform="translate(337 146)" fill="#24aae8" stroke="#fff" stroke-width="1"><rect width="8" height="70" stroke="none"/><rect x="0.5" y="0.5" width="7" height="69" fill="none"/></g><g transform="translate(305 166)" fill="#24aae8" stroke="#fff" stroke-width="1"><rect width="8" height="30" stroke="none"/><rect x="0.5" y="0.5" width="7" height="29" fill="none"/></g><g transform="translate(297 156)" fill="#24aae8" stroke="#fff" stroke-width="1"><rect width="8" height="50" stroke="none"/><rect x="0.5" y="0.5" width="7" height="49" fill="none"/></g><g transform="translate(289 146)" fill="#24aae8" stroke="#fff" stroke-width="1"><rect width="8" height="70" stroke="none"/><rect x="0.5" y="0.5" width="7" height="69" fill="none"/></g><g transform="translate(313 146)" fill="#24aae8" stroke="#fff" stroke-width="1"><rect width="8" height="70" stroke="none"/><rect x="0.5" y="0.5" width="7" height="69" fill="none"/></g><g transform="translate(213 146)" clip-path="url(#a)"><g transform="translate(-38 -226)"><g transform="translate(38 226)" fill="#1b71d5" stroke="#fff" stroke-width="1"><rect width="8" height="70" stroke="none"/><rect x="0.5" y="0.5" width="7" height="69" fill="none"/></g></g><g transform="translate(-30 -226)"><g transform="translate(38 226)" fill="#1b71d5" stroke="#fff" stroke-width="1"><rect width="8" height="70" stroke="none"/><rect x="0.5" y="0.5" width="7" height="69" fill="none"/></g></g><g transform="translate(-22 -226)"><g transform="translate(38 226)" fill="#1b71d5" stroke="#fff" stroke-width="1"><rect width="8" height="70" stroke="none"/><rect x="0.5" y="0.5" width="7" height="69" fill="none"/></g></g><g transform="translate(-14 -226)"><g transform="translate(38 226)" fill="#1b71d5" stroke="#fff" stroke-width="1"><rect width="8" height="70" stroke="none"/><rect x="0.5" y="0.5" width="7" height="69" fill="none"/></g></g><g transform="translate(-6 -226)"><g transform="translate(38 226)" fill="#1b71d5" stroke="#fff" stroke-width="1"><rect width="8" height="70" stroke="none"/><rect x="0.5" y="0.5" width="7" height="69" fill="none"/></g></g><g transform="translate(2 -226)"><g transform="translate(38 226)" fill="#1b71d5" stroke="#fff" stroke-width="1"><rect width="8" height="70" stroke="none"/><rect x="0.5" y="0.5" width="7" height="69" fill="none"/></g></g><g transform="translate(10 -226)"><g transform="translate(38 226)" fill="#1b71d5" stroke="#fff" stroke-width="1"><rect width="8" height="70" stroke="none"/><rect x="0.5" y="0.5" width="7" height="69" fill="none"/></g></g></g><g transform="translate(213 146)" clip-path="url(#b)"><g transform="translate(-38 -226)"><g transform="translate(38 226)" fill="#aec1d5" stroke="#fff" stroke-width="1"><rect width="8" height="70" stroke="none"/><rect x="0.5" y="0.5" width="7" height="69" fill="none"/></g></g><g transform="translate(-30 -226)"><g transform="translate(38 226)" fill="#aec1d5" stroke="#fff" stroke-width="1"><rect width="8" height="70" stroke="none"/><rect x="0.5" y="0.5" width="7" height="69" fill="none"/></g></g><g transform="translate(-22 -226)"><g transform="translate(38 226)" fill="#aec1d5" stroke="#fff" stroke-width="1"><rect width="8" height="70" stroke="none"/><rect x="0.5" y="0.5" width="7" height="69" fill="none"/></g></g><g transform="translate(-14 -226)"><g transform="translate(38 226)" fill="#aec1d5" stroke="#fff" stroke-width="1"><rect width="8" height="70" stroke="none"/><rect x="0.5" y="0.5" width="7" height="69" fill="none"/></g></g><g transform="translate(-6 -226)"><g transform="translate(38 226)" fill="#aec1d5" stroke="#fff" stroke-width="1"><rect width="8" height="70" stroke="none"/><rect x="0.5" y="0.5" width="7" height="69" fill="none"/></g></g><g transform="translate(2 -226)"><g transform="translate(38 226)" fill="#aec1d5" stroke="#fff" stroke-width="1"><rect width="8" height="70" stroke="none"/><rect x="0.5" y="0.5" width="7" height="69" fill="none"/></g></g><g transform="translate(10 -226)"><g transform="translate(38 226)" fill="#aec1d5" stroke="#fff" stroke-width="1"><rect width="8" height="70" stroke="none"/><rect x="0.5" y="0.5" width="7" height="69" fill="none"/></g></g></g><g transform="translate(213 146)" fill="#24aae8" stroke="#fff" stroke-width="1"><rect width="8" height="70" stroke="none"/><rect x="0.5" y="0.5" width="7" height="69" fill="none"/></g><g transform="translate(221 156)" fill="#24aae8" stroke="#fff" stroke-width="1"><rect width="8" height="50" stroke="none"/><rect x="0.5" y="0.5" width="7" height="49" fill="none"/></g><g transform="translate(229 166)" fill="#24aae8" stroke="#fff" stroke-width="1"><rect width="8" height="30" stroke="none"/><rect x="0.5" y="0.5" width="7" height="29" fill="none"/></g><g transform="translate(237 158)" fill="#24aae8" stroke="#fff" stroke-width="1"><rect width="8" height="48" stroke="none"/><rect x="0.5" y="0.5" width="7" height="47" fill="none"/></g><g transform="translate(261 146)" fill="#24aae8" stroke="#fff" stroke-width="1"><rect width="8" height="70" stroke="none"/><rect x="0.5" y="0.5" width="7" height="69" fill="none"/></g><g transform="translate(253 156)" fill="#24aae8" stroke="#fff" stroke-width="1"><rect width="8" height="50" stroke="none"/><rect x="0.5" y="0.5" width="7" height="49" fill="none"/></g><g transform="translate(245 166)" fill="#24aae8" stroke="#fff" stroke-width="1"><rect width="8" height="30" stroke="none"/><rect x="0.5" y="0.5" width="7" height="29" fill="none"/></g><g transform="translate(140 146)" clip-path="url(#a)"><g transform="translate(-38 -226)"><g transform="translate(38 226)" fill="#1b71d5" stroke="#fff" stroke-width="1"><rect width="8" height="70" stroke="none"/><rect x="0.5" y="0.5" width="7" height="69" fill="none"/></g></g><g transform="translate(-30 -226)"><g transform="translate(38 226)" fill="#1b71d5" stroke="#fff" stroke-width="1"><rect width="8" height="70" stroke="none"/><rect x="0.5" y="0.5" width="7" height="69" fill="none"/></g></g><g transform="translate(-22 -226)"><g transform="translate(38 226)" fill="#1b71d5" stroke="#fff" stroke-width="1"><rect width="8" height="70" stroke="none"/><rect x="0.5" y="0.5" width="7" height="69" fill="none"/></g></g><g transform="translate(-14 -226)"><g transform="translate(38 226)" fill="#1b71d5" stroke="#fff" stroke-width="1"><rect width="8" height="70" stroke="none"/><rect x="0.5" y="0.5" width="7" height="69" fill="none"/></g></g><g transform="translate(-6 -226)"><g transform="translate(38 226)" fill="#1b71d5" stroke="#fff" stroke-width="1"><rect width="8" height="70" stroke="none"/><rect x="0.5" y="0.5" width="7" height="69" fill="none"/></g></g><g transform="translate(2 -226)"><g transform="translate(38 226)" fill="#1b71d5" stroke="#fff" stroke-width="1"><rect width="8" height="70" stroke="none"/><rect x="0.5" y="0.5" width="7" height="69" fill="none"/></g></g><g transform="translate(10 -226)"><g transform="translate(38 226)" fill="#1b71d5" stroke="#fff" stroke-width="1"><rect width="8" height="70" stroke="none"/><rect x="0.5" y="0.5" width="7" height="69" fill="none"/></g></g></g><g transform="translate(140 146)" clip-path="url(#b)"><g transform="translate(-38 -226)"><g transform="translate(38 226)" fill="#aec1d5" stroke="#fff" stroke-width="1"><rect width="8" height="70" stroke="none"/><rect x="0.5" y="0.5" width="7" height="69" fill="none"/></g></g><g transform="translate(-30 -226)"><g transform="translate(38 226)" fill="#aec1d5" stroke="#fff" stroke-width="1"><rect width="8" height="70" stroke="none"/><rect x="0.5" y="0.5" width="7" height="69" fill="none"/></g></g><g transform="translate(-22 -226)"><g transform="translate(38 226)" fill="#aec1d5" stroke="#fff" stroke-width="1"><rect width="8" height="70" stroke="none"/><rect x="0.5" y="0.5" width="7" height="69" fill="none"/></g></g><g transform="translate(-14 -226)"><g transform="translate(38 226)" fill="#aec1d5" stroke="#fff" stroke-width="1"><rect width="8" height="70" stroke="none"/><rect x="0.5" y="0.5" width="7" height="69" fill="none"/></g></g><g transform="translate(-6 -226)"><g transform="translate(38 226)" fill="#aec1d5" stroke="#fff" stroke-width="1"><rect width="8" height="70" stroke="none"/><rect x="0.5" y="0.5" width="7" height="69" fill="none"/></g></g><g transform="translate(2 -226)"><g transform="translate(38 226)" fill="#aec1d5" stroke="#fff" stroke-width="1"><rect width="8" height="70" stroke="none"/><rect x="0.5" y="0.5" width="7" height="69" fill="none"/></g></g><g transform="translate(10 -226)"><g transform="translate(38 226)" fill="#aec1d5" stroke="#fff" stroke-width="1"><rect width="8" height="70" stroke="none"/><rect x="0.5" y="0.5" width="7" height="69" fill="none"/></g></g></g><g transform="translate(140 156)" fill="#24aae8" stroke="#fff" stroke-width="1"><rect width="8" height="50" stroke="none"/><rect x="0.5" y="0.5" width="7" height="49" fill="none"/></g><g transform="translate(148 166)" fill="#24aae8" stroke="#fff" stroke-width="1"><rect width="8" height="30" stroke="none"/><rect x="0.5" y="0.5" width="7" height="29" fill="none"/></g><g transform="translate(156 156)" fill="#24aae8" stroke="#fff" stroke-width="1"><rect width="8" height="50" stroke="none"/><rect x="0.5" y="0.5" width="7" height="49" fill="none"/></g><g transform="translate(164 146)" fill="#24aae8" stroke="#fff" stroke-width="1"><rect width="8" height="70" stroke="none"/><rect x="0.5" y="0.5" width="7" height="69" fill="none"/></g><g transform="translate(188 156)" fill="#24aae8" stroke="#fff" stroke-width="1"><rect width="8" height="50" stroke="none"/><rect x="0.5" y="0.5" width="7" height="49" fill="none"/></g><g transform="translate(180 166)" fill="#24aae8" stroke="#fff" stroke-width="1"><rect width="8" height="30" stroke="none"/><rect x="0.5" y="0.5" width="7" height="29" fill="none"/></g><g transform="translate(172 156)" fill="#24aae8" stroke="#fff" stroke-width="1"><rect width="8" height="50" stroke="none"/><rect x="0.5" y="0.5" width="7" height="49" fill="none"/></g><g transform="translate(38 146)" clip-path="url(#g)"><g transform="translate(-38 -226)"><g transform="translate(38 226)" fill="#1b71d5" stroke="#fff" stroke-width="1"><rect width="8" height="70" stroke="none"/><rect x="0.5" y="0.5" width="7" height="69" fill="none"/></g></g><g transform="translate(-30 -226)"><g transform="translate(38 226)" fill="#1b71d5" stroke="#fff" stroke-width="1"><rect width="8" height="70" stroke="none"/><rect x="0.5" y="0.5" width="7" height="69" fill="none"/></g></g><g transform="translate(-22 -226)"><g transform="translate(38 226)" fill="#1b71d5" stroke="#fff" stroke-width="1"><rect width="8" height="70" stroke="none"/><rect x="0.5" y="0.5" width="7" height="69" fill="none"/></g></g><g transform="translate(-14 -226)"><g transform="translate(38 226)" fill="#1b71d5" stroke="#fff" stroke-width="1"><rect width="8" height="70" stroke="none"/><rect x="0.5" y="0.5" width="7" height="69" fill="none"/></g></g><g transform="translate(-6 -226)"><g transform="translate(38 226)" fill="#1b71d5" stroke="#fff" stroke-width="1"><rect width="8" height="70" stroke="none"/><rect x="0.5" y="0.5" width="7" height="69" fill="none"/></g></g><g transform="translate(2 -226)"><g transform="translate(38 226)" fill="#1b71d5" stroke="#fff" stroke-width="1"><rect width="8" height="70" stroke="none"/><rect x="0.5" y="0.5" width="7" height="69" fill="none"/></g></g><g transform="translate(10 -226)"><g transform="translate(38 226)" fill="#1b71d5" stroke="#fff" stroke-width="1"><rect width="8" height="70" stroke="none"/><rect x="0.5" y="0.5" width="7" height="69" fill="none"/></g></g><g transform="translate(18 -226)"><g transform="translate(38 226)" fill="#1b71d5" stroke="#fff" stroke-width="1"><rect width="8" height="70" stroke="none"/><rect x="0.5" y="0.5" width="7" height="69" fill="none"/></g></g><g transform="translate(26 -226)"><g transform="translate(38 226)" fill="#1b71d5" stroke="#fff" stroke-width="1"><rect width="8" height="70" stroke="none"/><rect x="0.5" y="0.5" width="7" height="69" fill="none"/></g></g><g transform="translate(34 -226)"><g transform="translate(38 226)" fill="#1b71d5" stroke="#fff" stroke-width="1"><rect width="8" height="70" stroke="none"/><rect x="0.5" y="0.5" width="7" height="69" fill="none"/></g></g><g transform="translate(42 -226)"><g transform="translate(38 226)" fill="#1b71d5" stroke="#fff" stroke-width="1"><rect width="8" height="70" stroke="none"/><rect x="0.5" y="0.5" width="7" height="69" fill="none"/></g></g></g><g transform="translate(38 146)" clip-path="url(#h)"><g transform="translate(-38 -226)"><g transform="translate(38 226)" fill="#aec1d5" stroke="#fff" stroke-width="1"><rect width="8" height="70" stroke="none"/><rect x="0.5" y="0.5" width="7" height="69" fill="none"/></g></g><g transform="translate(-30 -226)"><g transform="translate(38 226)" fill="#aec1d5" stroke="#fff" stroke-width="1"><rect width="8" height="70" stroke="none"/><rect x="0.5" y="0.5" width="7" height="69" fill="none"/></g></g><g transform="translate(-22 -226)"><g transform="translate(38 226)" fill="#aec1d5" stroke="#fff" stroke-width="1"><rect width="8" height="70" stroke="none"/><rect x="0.5" y="0.5" width="7" height="69" fill="none"/></g></g><g transform="translate(-14 -226)"><g transform="translate(38 226)" fill="#aec1d5" stroke="#fff" stroke-width="1"><rect width="8" height="70" stroke="none"/><rect x="0.5" y="0.5" width="7" height="69" fill="none"/></g></g><g transform="translate(-6 -226)"><g transform="translate(38 226)" fill="#aec1d5" stroke="#fff" stroke-width="1"><rect width="8" height="70" stroke="none"/><rect x="0.5" y="0.5" width="7" height="69" fill="none"/></g></g><g transform="translate(2 -226)"><g transform="translate(38 226)" fill="#aec1d5" stroke="#fff" stroke-width="1"><rect width="8" height="70" stroke="none"/><rect x="0.5" y="0.5" width="7" height="69" fill="none"/></g></g><g transform="translate(10 -226)"><g transform="translate(38 226)" fill="#aec1d5" stroke="#fff" stroke-width="1"><rect width="8" height="70" stroke="none"/><rect x="0.5" y="0.5" width="7" height="69" fill="none"/></g></g><g transform="translate(18 -226)"><g transform="translate(38 226)" fill="#aec1d5" stroke="#fff" stroke-width="1"><rect width="8" height="70" stroke="none"/><rect x="0.5" y="0.5" width="7" height="69" fill="none"/></g></g><g transform="translate(26 -226)"><g transform="translate(38 226)" fill="#aec1d5" stroke="#fff" stroke-width="1"><rect width="8" height="70" stroke="none"/><rect x="0.5" y="0.5" width="7" height="69" fill="none"/></g></g><g transform="translate(34 -226)"><g transform="translate(38 226)" fill="#aec1d5" stroke="#fff" stroke-width="1"><rect width="8" height="70" stroke="none"/><rect x="0.5" y="0.5" width="7" height="69" fill="none"/></g></g><g transform="translate(42 -226)"><g transform="translate(38 226)" fill="#aec1d5" stroke="#fff" stroke-width="1"><rect width="8" height="70" stroke="none"/><rect x="0.5" y="0.5" width="7" height="69" fill="none"/></g></g></g><g transform="translate(38 146)" fill="#24aae8" stroke="#fff" stroke-width="1"><rect width="8" height="70" stroke="none"/><rect x="0.5" y="0.5" width="7" height="69" fill="none"/></g><g transform="translate(46 156)" fill="#24aae8" stroke="#fff" stroke-width="1"><rect width="8" height="50" stroke="none"/><rect x="0.5" y="0.5" width="7" height="49" fill="none"/></g><g transform="translate(54 166)" fill="#24aae8" stroke="#fff" stroke-width="1"><rect width="8" height="30" stroke="none"/><rect x="0.5" y="0.5" width="7" height="29" fill="none"/></g><g transform="translate(62 156)" fill="#24aae8" stroke="#fff" stroke-width="1"><rect width="8" height="50" stroke="none"/><rect x="0.5" y="0.5" width="7" height="49" fill="none"/></g><g transform="translate(70 166)" fill="#24aae8" stroke="#fff" stroke-width="1"><rect width="8" height="30" stroke="none"/><rect x="0.5" y="0.5" width="7" height="29" fill="none"/></g><g transform="translate(78 156)" fill="#24aae8" stroke="#fff" stroke-width="1"><rect width="8" height="50" stroke="none"/><rect x="0.5" y="0.5" width="7" height="49" fill="none"/></g><g transform="translate(86 166)" fill="#24aae8" stroke="#fff" stroke-width="1"><rect width="8" height="30" stroke="none"/><rect x="0.5" y="0.5" width="7" height="29" fill="none"/></g><g transform="translate(94 156)" fill="#24aae8" stroke="#fff" stroke-width="1"><rect width="8" height="50" stroke="none"/><rect x="0.5" y="0.5" width="7" height="49" fill="none"/></g><g transform="translate(102 166)" fill="#24aae8" stroke="#fff" stroke-width="1"><rect width="8" height="30" stroke="none"/><rect x="0.5" y="0.5" width="7" height="29" fill="none"/></g><g transform="translate(110 156)" fill="#24aae8" stroke="#fff" stroke-width="1"><rect width="8" height="50" stroke="none"/><rect x="0.5" y="0.5" width="7" height="49" fill="none"/></g><g transform="translate(118 146)" fill="#24aae8" stroke="#fff" stroke-width="1"><rect width="8" height="70" stroke="none"/><rect x="0.5" y="0.5" width="7" height="69" fill="none"/></g></g><g transform="translate(0 1)"><g transform="translate(313 173)" fill="#ea9713" stroke="#584a4a" stroke-width="1"><rect width="8" height="33" stroke="none"/><rect x="0.5" y="0.5" width="7" height="32" fill="none"/></g><g transform="translate(321 166)" fill="#ea9713" stroke="#584a4a" stroke-width="1"><rect width="8" height="15" stroke="none"/><rect x="0.5" y="0.5" width="7" height="14" fill="none"/></g><g transform="translate(329 156)" fill="#ea9713" stroke="#584a4a" stroke-width="1"><rect width="8" height="15" stroke="none"/><rect x="0.5" y="0.5" width="7" height="14" fill="none"/></g><g transform="translate(337 146)" fill="#ea9713" stroke="#584a4a" stroke-width="1"><rect width="8" height="15" stroke="none"/><rect x="0.5" y="0.5" width="7" height="14" fill="none"/></g><g transform="translate(289 146)" fill="#ea9713" stroke="#584a4a" stroke-width="1"><rect width="8" height="15" stroke="none"/><rect x="0.5" y="0.5" width="7" height="14" fill="none"/></g><g transform="translate(297 156)" fill="#ea9713" stroke="#584a4a" stroke-width="1"><rect width="8" height="15" stroke="none"/><rect x="0.5" y="0.5" width="7" height="14" fill="none"/></g><g transform="translate(305 166)" fill="#ea9713" stroke="#584a4a" stroke-width="1"><rect width="8" height="15" stroke="none"/><rect x="0.5" y="0.5" width="7" height="14" fill="none"/></g><g transform="translate(213 146)" fill="#ea9713" stroke="#584a4a" stroke-width="1"><rect width="8" height="15" stroke="none"/><rect x="0.5" y="0.5" width="7" height="14" fill="none"/></g><g transform="translate(221 156)" fill="#ea9713" stroke="#584a4a" stroke-width="1"><rect width="8" height="21" stroke="none"/><rect x="0.5" y="0.5" width="7" height="20" fill="none"/></g><g transform="translate(229 171)" fill="#ea9713" stroke="#584a4a" stroke-width="1"><rect width="8" height="21" stroke="none"/><rect x="0.5" y="0.5" width="7" height="20" fill="none"/></g><g transform="translate(237 185)" fill="#ea9713" stroke="#584a4a" stroke-width="1"><rect width="8" height="21" stroke="none"/><rect x="0.5" y="0.5" width="7" height="20" fill="none"/></g><g transform="translate(245 171)" fill="#ea9713" stroke="#584a4a" stroke-width="1"><rect width="8" height="21" stroke="none"/><rect x="0.5" y="0.5" width="7" height="20" fill="none"/></g><g transform="translate(253 156)" fill="#ea9713" stroke="#584a4a" stroke-width="1"><rect width="8" height="21" stroke="none"/><rect x="0.5" y="0.5" width="7" height="20" fill="none"/></g><g transform="translate(261 146)" fill="#ea9713" stroke="#584a4a" stroke-width="1"><rect width="8" height="15" stroke="none"/><rect x="0.5" y="0.5" width="7" height="14" fill="none"/></g><g transform="translate(148 166)" fill="#ea9713" stroke="#584a4a" stroke-width="1"><rect width="8" height="26" stroke="none"/><rect x="0.5" y="0.5" width="7" height="25" fill="none"/></g><g transform="translate(156 156)" fill="#ea9713" stroke="#584a4a" stroke-width="1"><rect width="8" height="15" stroke="none"/><rect x="0.5" y="0.5" width="7" height="14" fill="none"/></g><g transform="translate(164 146)" fill="#ea9713" stroke="#584a4a" stroke-width="1"><rect width="8" height="15" stroke="none"/><rect x="0.5" y="0.5" width="7" height="14" fill="none"/></g><g transform="translate(156 177)" fill="#ea9713" stroke="#584a4a" stroke-width="1"><rect width="8" height="8" stroke="none"/><rect x="0.5" y="0.5" width="7" height="7" fill="none"/></g><g transform="translate(164 177)" fill="#ea9713" stroke="#584a4a" stroke-width="1"><rect width="8" height="8" stroke="none"/><rect x="0.5" y="0.5" width="7" height="7" fill="none"/></g><g transform="translate(172 177)" fill="#ea9713" stroke="#584a4a" stroke-width="1"><rect width="8" height="8" stroke="none"/><rect x="0.5" y="0.5" width="7" height="7" fill="none"/></g><g transform="translate(180 166)" fill="#ea9713" stroke="#584a4a" stroke-width="1"><rect width="8" height="26" stroke="none"/><rect x="0.5" y="0.5" width="7" height="25" fill="none"/></g><g transform="translate(172 156)" fill="#ea9713" stroke="#584a4a" stroke-width="1"><rect width="8" height="15" stroke="none"/><rect x="0.5" y="0.5" width="7" height="14" fill="none"/></g><g transform="translate(140 177)" fill="#ea9713" stroke="#584a4a" stroke-width="1"><rect width="8" height="29" stroke="none"/><rect x="0.5" y="0.5" width="7" height="28" fill="none"/></g><g transform="translate(188 177)" fill="#ea9713" stroke="#584a4a" stroke-width="1"><rect width="8" height="29" stroke="none"/><rect x="0.5" y="0.5" width="7" height="28" fill="none"/></g><g transform="translate(38 146)" fill="#ea9713" stroke="#584a4a" stroke-width="1"><rect width="8" height="25" stroke="none"/><rect x="0.5" y="0.5" width="7" height="24" fill="none"/></g><g transform="translate(46 156)" fill="#ea9713" stroke="#584a4a" stroke-width="1"><rect width="8" height="25" stroke="none"/><rect x="0.5" y="0.5" width="7" height="24" fill="none"/></g><g transform="translate(54 171)" fill="#ea9713" stroke="#584a4a" stroke-width="1"><rect width="8" height="25" stroke="none"/><rect x="0.5" y="0.5" width="7" height="24" fill="none"/></g><g transform="translate(62 181)" fill="#ea9713" stroke="#584a4a" stroke-width="1"><rect width="8" height="25" stroke="none"/><rect x="0.5" y="0.5" width="7" height="24" fill="none"/></g><g transform="translate(70 171)" fill="#ea9713" stroke="#584a4a" stroke-width="1"><rect width="8" height="25" stroke="none"/><rect x="0.5" y="0.5" width="7" height="24" fill="none"/></g><g transform="translate(78 156)" fill="#ea9713" stroke="#584a4a" stroke-width="1"><rect width="8" height="25" stroke="none"/><rect x="0.5" y="0.5" width="7" height="24" fill="none"/></g><g transform="translate(86 171)" fill="#ea9713" stroke="#584a4a" stroke-width="1"><rect width="8" height="25" stroke="none"/><rect x="0.5" y="0.5" width="7" height="24" fill="none"/></g><g transform="translate(94 181)" fill="#ea9713" stroke="#584a4a" stroke-width="1"><rect width="8" height="25" stroke="none"/><rect x="0.5" y="0.5" width="7" height="24" fill="none"/></g><g transform="translate(102 171)" fill="#ea9713" stroke="#584a4a" stroke-width="1"><rect width="8" height="25" stroke="none"/><rect x="0.5" y="0.5" width="7" height="24" fill="none"/></g><g transform="translate(110 156)" fill="#ea9713" stroke="#584a4a" stroke-width="1"><rect width="8" height="25" stroke="none"/><rect x="0.5" y="0.5" width="7" height="24" fill="none"/></g><g transform="translate(118 146)" fill="#ea9713" stroke="#584a4a" stroke-width="1"><rect width="8" height="25" stroke="none"/><rect x="0.5" y="0.5" width="7" height="24" fill="none"/></g></g></g></svg>